<svg width="43" height="43" viewBox="0 0 43 43" fill="none" xmlns="http://www.w3.org/2000/svg">
<g clip-path="url(#clip0_1_33)">
<path d="M21.4733 21.5266C21.4733 21.5266 22.1833 31.838 16.2605 37.7604C10.3376 43.6828 0.026668 42.9733 0.026668 42.9733C0.026668 42.9733 -0.683262 32.6619 5.23956 26.7395C11.1624 20.8171 21.4733 21.5266 21.4733 21.5266Z" fill="#A9D8C8"/>
<path d="M42.9733 0.0266901C42.9733 0.0266901 43.6833 10.3381 37.7605 16.2605C31.8376 22.1829 21.5267 21.4734 21.5267 21.4734C21.5267 21.4734 20.8167 11.162 26.7396 5.23958C32.6624 -0.68281 42.9733 0.0266901 42.9733 0.0266901Z" fill="#A9D8C8"/>
<path d="M21.4736 21.4735C21.4736 21.4735 11.1622 22.1834 5.23976 16.2606C-0.682626 10.3378 0.0268732 0.02679 0.0268732 0.02679C0.0268732 0.02679 10.3383 -0.68314 16.2607 5.23968C22.1831 11.1625 21.4736 21.4735 21.4736 21.4735Z" fill="#A9D8C8"/>
<path d="M42.9733 42.9733C42.9733 42.9733 32.6619 43.6833 26.7395 37.7605C20.8171 31.8376 21.5266 21.5267 21.5266 21.5267C21.5266 21.5267 31.838 20.8167 37.7604 26.7396C43.6828 32.6624 42.9733 42.9733 42.9733 42.9733Z" fill="#A9D8C8"/>
</g>
<defs>
<clipPath id="clip0_1_33">
<rect width="43" height="43" fill="white"/>
</clipPath>
</defs>
</svg>
